<svg xmlns="http://www.w3.org/2000/svg" xmlns:xlink="http://www.w3.org/1999/xlink" aria-hidden="true" role="img" style="color: rgb(74, 85, 101);" width="64" height="64" viewBox="0 0 32 32"><g fill="none"><path fill="url(#iconifyReact46790)" d="M28.831 2.165H3.104c-.63 0-1.141.51-1.141 1.14v25.72c0 .63.51 1.14 1.14 1.14h25.718a1.14 1.14 0 0 0 1.141-1.14V3.305c.01-.63-.51-1.14-1.13-1.14"></path><path fill="url(#iconifyReact46791)" d="M28.831 2.165H3.104c-.63 0-1.141.51-1.141 1.14v25.72c0 .63.51 1.14 1.14 1.14h25.718a1.14 1.14 0 0 0 1.141-1.14V3.305c.01-.63-.51-1.14-1.13-1.14"></path><path fill="url(#iconifyReact46792)" d="M28.831 2.165H3.104c-.63 0-1.141.51-1.141 1.14v25.72c0 .63.51 1.14 1.14 1.14h25.718a1.14 1.14 0 0 0 1.141-1.14V3.305c.01-.63-.51-1.14-1.13-1.14"></path><path fill="url(#iconifyReact46797)" d="M28.831 2.165H3.104c-.63 0-1.141.51-1.141 1.14v25.72c0 .63.51 1.14 1.14 1.14h25.718a1.14 1.14 0 0 0 1.141-1.14V3.305c.01-.63-.51-1.14-1.13-1.14"></path><path fill="url(#iconifyReact46798)" d="M28.831 2.165H3.104c-.63 0-1.141.51-1.141 1.14v25.72c0 .63.51 1.14 1.14 1.14h25.718a1.14 1.14 0 0 0 1.141-1.14V3.305c.01-.63-.51-1.14-1.13-1.14"></path>
        <g filter="url(#iconifyReact46801)"><path fill="url(#iconifyReact46793)" d="M28.831 2.165H3.104c-.63 0-1.141.51-1.141 1.14V7.93a2 2 0 0 0 .968 1.713L13.485 16h4.955l10.554-6.357a2 2 0 0 0 .968-1.713V3.305c.01-.63-.5-1.14-1.13-1.14"></path><path fill="url(#iconifyReact46794)" d="M28.831 2.165H3.104c-.63 0-1.141.51-1.141 1.14V7.93a2 2 0 0 0 .968 1.713L13.485 16h4.955l10.554-6.357a2 2 0 0 0 .968-1.713V3.305c.01-.63-.5-1.14-1.13-1.14"></path><path fill="url(#iconifyReact46799)" d="M28.831 2.165H3.104c-.63 0-1.141.51-1.141 1.14V7.93a2 2 0 0 0 .968 1.713L13.485 16h4.955l10.554-6.357a2 2 0 0 0 .968-1.713V3.305c.01-.63-.5-1.14-1.13-1.14"></path></g>
        <path fill="url(#iconifyReact46795)" d="M28.831 2.165H3.104c-.63 0-1.141.51-1.141 1.14V7.93a2 2 0 0 0 .968 1.713L13.485 16h4.955l10.554-6.357a2 2 0 0 0 .968-1.713V3.305c.01-.63-.5-1.14-1.13-1.14"></path><path fill="url(#iconifyReact46796)" d="M28.831 2.165H3.104c-.63 0-1.141.51-1.141 1.14V7.93a2 2 0 0 0 .968 1.713L13.485 16h4.955l10.554-6.357a2 2 0 0 0 .968-1.713V3.305c.01-.63-.5-1.14-1.13-1.14"></path>

        <defs>
            <radialGradient id="sealBevel" cx="40%" cy="35%" r="65%">
                <stop offset="0%" stop-color="#C04060" stop-opacity="0.5"/>
                <stop offset="100%" stop-color="#4A0A16" stop-opacity="0.7"/>
            </radialGradient>
            <linearGradient id="iconifyReact46790" x1="15.965" x2="15.965" y1="8.52" y2="30.165" gradientUnits="userSpaceOnUse"><stop stop-color="#DB2B3C"/><stop offset="1" stop-color="#DD1E83"/></linearGradient>
            <linearGradient id="iconifyReact46791" x1="16.586" x2="16.586" y1="30.714" y2="28.083" gradientUnits="userSpaceOnUse"><stop stop-color="#BD2D89"/><stop offset="1" stop-color="#BD2D89" stop-opacity="0"/></linearGradient>
            <linearGradient id="iconifyReact46792" x1="1.544" x2="5.325" y1="22.823" y2="22.823" gradientUnits="userSpaceOnUse"><stop stop-color="#C66370"/><stop offset="1" stop-color="#C66370" stop-opacity="0"/></linearGradient>
            <linearGradient id="iconifyReact46793" x1="1.379" x2="29.963" y1="8.415" y2="8.415" gradientUnits="userSpaceOnUse"><stop stop-color="#3D0A12"/><stop offset="1" stop-color="#5C1030"/></linearGradient>
            <linearGradient id="iconifyReact46794" x1="1.544" x2="5.325" y1="11.387" y2="11.387" gradientUnits="userSpaceOnUse"><stop stop-color="#5A1020"/><stop offset="1" stop-color="#5A1020" stop-opacity="0"/></linearGradient>
            <linearGradient id="iconifyReact46795" x1="7.796" x2="8.317" y1="12.863" y2="12.001" gradientUnits="userSpaceOnUse"><stop stop-color="#2A0810"/><stop offset="1" stop-color="#2A0810" stop-opacity="0"/></linearGradient>
            <linearGradient id="iconifyReact46796" x1="15.963" x2="15.963" y1="2.165" y2="3.348" gradientUnits="userSpaceOnUse"><stop stop-color="#7A2040"/><stop offset="1" stop-color="#7A2040" stop-opacity="0"/></linearGradient>
            <radialGradient id="iconifyReact46797" cx="0" cy="0" r="1" gradientTransform="matrix(-9.06558 16.52642 -18.66298 -10.23759 30.88 7.388)" gradientUnits="userSpaceOnUse"><stop stop-color="#FF4B52"/><stop offset="1" stop-color="#FF4B52" stop-opacity="0"/></radialGradient>
            <radialGradient id="iconifyReact46798" cx="0" cy="0" r="1" gradientTransform="matrix(0 16.9276 -10.8536 0 23.981 8.752)" gradientUnits="userSpaceOnUse"><stop stop-color="#FF5860"/><stop offset="1" stop-color="#FF5860" stop-opacity="0"/></radialGradient>
            <radialGradient id="iconifyReact46799" cx="0" cy="0" r="1" gradientTransform="matrix(0 14.3849 -6.48488 0 27.628 6.465)" gradientUnits="userSpaceOnUse"><stop stop-color="#7A3050" stop-opacity="0.4"/><stop offset="1" stop-color="#7A3050" stop-opacity="0"/></radialGradient>
            <filter id="iconifyReact46801" width="28" height="14.335" x="1.963" y="1.665" color-interpolation-filters="sRGB" filterUnits="userSpaceOnUse"><feFlood flood-opacity="0" result="BackgroundImageFix"/><feBlend in="SourceGraphic" in2="BackgroundImageFix" result="shape"/><feColorMatrix in="SourceAlpha" result="hardAlpha" values="0 0 0 0 0 0 0 0 0 0 0 0 0 0 0 0 0 0 127 0"/><feOffset dy="-.5"/><feGaussianBlur stdDeviation=".25"/><feComposite in2="hardAlpha" k2="-1" k3="1" operator="arithmetic"/><feColorMatrix values="0 0 0 0 0.3 0 0 0 0 0.05 0 0 0 0 0.1 0 0 0 1 0"/><feBlend in2="shape" result="effect1_innerShadow_18_1190"/></filter>
        </defs>
        </g></svg>
