<svg xmlns="http://www.w3.org/2000/svg" xmlns:xlink="http://www.w3.org/1999/xlink" aria-hidden="true" role="img" width="64" height="64" viewBox="0 0 80 80" style="color: rgb(0, 0, 0);"><g fill="currentColor"><path d="M48 30a2 2 0 0 0 2 2h18.174c1.104 0 2.009-.897 1.91-1.997A22.17 22.17 0 0 0 49.998 9.917c-1.1-.1-1.998.805-1.998 1.91z"></path><path d="M30.101 16.1a25.9 25.9 0 0 1 7.901-1.892c1.102-.085 1.998.819 1.998 1.923v21.87a2 2 0 0 0 2 2h21.87c1.104 0 2.007.896 1.922 1.997A25.869 25.869 0 1 1 30.102 16.1"></path></g></svg>
